<svg width="29" height="68" viewBox="0 0 29 68" fill="none" xmlns="http://www.w3.org/2000/svg">
<path fill-rule="evenodd" clip-rule="evenodd" d="M24.5655 42.6318C24.5655 43.1085 24.179 43.4949 23.7023 43.4949L5.69519 43.4949C5.21847 43.4949 4.83202 43.1085 4.83202 42.6318C4.83202 42.1551 5.21847 41.7686 5.69518 41.7686L23.7023 41.7686C24.179 41.7686 24.5655 42.1551 24.5655 42.6318ZM24.5655 34.0001C24.5655 34.4768 24.179 34.8633 23.7023 34.8633L5.69519 34.8633C5.21847 34.8633 4.83202 34.4768 4.83202 34.0001C4.83202 33.5234 5.21847 33.1369 5.69519 33.1369L23.7023 33.1369C24.179 33.1369 24.5655 33.5234 24.5655 34.0001ZM23.7023 26.2316C24.179 26.2316 24.5655 25.8451 24.5655 25.3684C24.5655 24.8917 24.179 24.5052 23.7023 24.5052L5.69519 24.5052C5.21847 24.5052 4.83202 24.8917 4.83202 25.3684C4.83202 25.8451 5.21847 26.2316 5.69519 26.2316L23.7023 26.2316ZM19.9223 51.2635C19.9223 51.7402 19.5358 52.1266 19.0591 52.1266L9.75793 52.1266C9.28121 52.1266 8.89476 51.7402 8.89476 51.2635C8.89476 50.7867 9.28121 50.4003 9.75793 50.4003L19.0591 50.4003C19.5358 50.4003 19.9223 50.7867 19.9223 51.2635ZM19.0591 17.5999C19.5358 17.5999 19.9223 17.2134 19.9223 16.7367C19.9223 16.26 19.5358 15.8735 19.0591 15.8735L9.75793 15.8735C9.28122 15.8735 8.89476 16.26 8.89476 16.7367C8.89476 17.2134 9.28122 17.5999 9.75793 17.5999L19.0591 17.5999Z" fill="url(#paint0_linear_2_8324)"/>
<path fill-rule="evenodd" clip-rule="evenodd" d="M6.60446 66.1012C6.60446 65.0526 7.46188 64.2024 8.51957 64.2024C9.57726 64.2024 10.4347 65.0526 10.4347 66.1012C10.4347 67.1499 9.57726 68 8.51957 68C7.46188 68 6.60446 67.1499 6.60446 66.1012ZM13.7861 56.37C12.3318 56.37 11.1529 57.5389 11.1529 58.9808C11.1528 60.4227 12.3318 61.5916 13.7861 61.5916C15.2404 61.5916 16.4194 60.4227 16.4194 58.9808C16.4194 57.5389 15.2405 56.37 13.7861 56.37ZM17.1376 51.3857C17.1376 49.7471 18.4773 48.4188 20.1299 48.4188C21.7826 48.4188 23.1223 49.7471 23.1223 51.3857C23.1223 53.0242 21.7826 54.3525 20.1299 54.3525C18.4773 54.3525 17.1376 53.0242 17.1376 51.3857ZM21.2072 42.7225C21.2072 40.8873 22.7077 39.3996 24.5586 39.3996C26.4096 39.3996 27.9101 40.8873 27.9101 42.7225C27.9101 44.5577 26.4096 46.0454 24.5586 46.0454C22.7077 46.0454 21.2072 44.5577 21.2072 42.7225ZM25.995 31.5672C24.5406 31.5672 23.3617 32.7361 23.3617 34.178C23.3617 35.6199 24.5406 36.7888 25.995 36.7888C27.4493 36.7888 28.6282 35.6199 28.6282 34.178C28.6282 32.7361 27.4493 31.5672 25.995 31.5672Z" fill="url(#paint1_linear_2_8324)"/>
<path fill-rule="evenodd" clip-rule="evenodd" d="M22.883 1.89878C22.883 2.94745 22.0255 3.79756 20.9678 3.79756C19.9102 3.79756 19.0527 2.94745 19.0527 1.89878C19.0527 0.850114 19.9102 2.40624e-06 20.9678 2.53572e-06C22.0255 2.6652e-06 22.883 0.850115 22.883 1.89878ZM15.7013 11.63C17.1556 11.63 18.3346 10.4611 18.3346 9.0192C18.3346 7.57729 17.1556 6.40838 15.7013 6.40838C14.247 6.40838 13.068 7.57729 13.068 9.0192C13.068 10.4611 14.247 11.63 15.7013 11.63ZM12.3498 16.6143C12.3498 18.2529 11.0101 19.5812 9.35745 19.5812C7.70482 19.5812 6.36509 18.2529 6.36509 16.6143C6.36509 14.9758 7.70482 13.6475 9.35745 13.6475C11.0101 13.6475 12.3498 14.9758 12.3498 16.6143ZM8.28021 25.2775C8.28021 27.1127 6.77972 28.6004 4.92877 28.6004C3.07781 28.6004 1.57732 27.1127 1.57732 25.2775C1.57732 23.4424 3.07781 21.9547 4.92877 21.9547C6.77972 21.9547 8.28021 23.4424 8.28021 25.2775ZM3.13333 31.5672C1.67901 31.5672 0.500053 32.7361 0.500052 34.178C0.500052 35.6199 1.67901 36.7889 3.13333 36.7889C4.58765 36.7889 5.76661 35.6199 5.76661 34.178C5.76661 32.7361 4.58765 31.5672 3.13333 31.5672Z" fill="url(#paint2_linear_2_8324)"/>
<ellipse cx="24.5641" cy="25.5488" rx="2.13093" ry="2.11275" fill="#4299ED"/>
<ellipse cx="5.70259" cy="42.6317" rx="2.03139" ry="2.01406" fill="#8AF9BC"/>
<defs>
<linearGradient id="paint0_linear_2_8324" x1="24.5655" y1="34.0001" x2="4.83202" y2="34.0001" gradientUnits="userSpaceOnUse">
<stop stop-color="#AED8F0"/>
<stop offset="1" stop-color="#9EF0C9"/>
</linearGradient>
<linearGradient id="paint1_linear_2_8324" x1="17.6163" y1="68" x2="17.6163" y2="31.5672" gradientUnits="userSpaceOnUse">
<stop stop-color="#CAECFF"/>
<stop offset="1" stop-color="#0060F0"/>
</linearGradient>
<linearGradient id="paint2_linear_2_8324" x1="11.6915" y1="1.38649e-06" x2="11.6915" y2="36.7889" gradientUnits="userSpaceOnUse">
<stop stop-color="#B9FFBB"/>
<stop offset="1" stop-color="#17E475"/>
</linearGradient>
</defs>
</svg>
