<svg width="91" height="93" viewBox="0 0 91 93" fill="none" xmlns="http://www.w3.org/2000/svg">
<path d="M88.4116 29.5394C87.4416 34.5303 80.5056 44.5413 76.359 48.7197C72.7275 52.3219 68.7033 55.4954 64.3638 58.1794C65.1581 60.1884 65.8365 62.2424 66.3955 64.331C66.6634 66.5949 66.2902 68.8891 65.3194 70.9469C61.2817 82.4668 45.0796 93 45.0796 93C42.7378 85.2689 41.6713 77.2005 41.923 69.1189C37.8852 70.6163 33.8005 71.9808 29.6752 73.2103L17.3156 60.7039C18.1133 57.9472 19.023 55.0165 20.0877 51.9116C13.3692 52.5257 6.59765 52.1148 0 50.6929C0 50.6929 7.85141 33.3987 18.6528 27.9434C20.0167 26.9916 21.5958 26.4028 23.2443 26.2314C25.8837 26.2227 28.5048 26.6742 30.9924 27.5662C33.9129 22.4536 37.4484 17.7265 41.5183 13.4929C47.0826 7.86353 46.325 8.5019 50.8247 5.94839C63.9161 -1.451 91 0.14495 91 0.14495C90.9364 9.99832 90.0707 19.8297 88.4116 29.5394ZM48.1301 84.8752C48.1301 84.8752 57.6487 76.7794 60.2974 68.9157C60.4759 68.3933 60.6225 67.8603 60.7365 67.3198C61.0705 65.121 60.7974 62.8717 59.9473 60.8199C55.8849 63.0843 51.7012 65.1187 47.4155 66.9135C46.2435 72.8733 46.4874 79.0293 48.1272 84.8752H48.1301ZM22.2772 32.4701C21.2698 32.6433 20.3096 33.0288 19.4592 33.6018C12.1502 37.403 6.9819 47.414 6.9819 47.414C12.0855 47.6927 17.2028 47.2631 22.1911 46.1372C23.9193 41.6029 25.8889 37.1665 28.0912 32.8473C26.1657 32.5608 24.2202 32.4346 22.2744 32.4701H22.2772ZM84.3022 5.4551C84.3022 5.4551 65.6666 4.20736 56.5611 8.85011C52.8579 11.1438 49.4131 13.839 46.2877 16.8879C34.7287 28.5528 27.5545 47.7622 24.0335 59.34L31.0268 66.4202C42.4682 62.8511 61.4453 55.5968 73.0158 43.9029C74.1769 42.7431 75.2557 41.5019 76.2442 40.1887C85.5189 27.6242 84.2993 5.4551 84.2993 5.4551H84.3022ZM59.4279 37.8673C57.7252 37.8673 56.0608 37.3568 54.645 36.4002C53.2293 35.4437 52.1258 34.0841 51.4743 32.4935C50.8227 30.9028 50.6522 29.1525 50.9843 27.4639C51.3165 25.7752 52.1365 24.2241 53.3404 23.0067C54.5444 21.7892 56.0784 20.9601 57.7484 20.6243C59.4184 20.2884 61.1494 20.4608 62.7225 21.1196C64.2955 21.7785 65.6401 22.8943 66.586 24.3258C67.532 25.7574 68.0369 27.4404 68.0369 29.1622C68.0369 31.4709 67.1299 33.6851 65.5154 35.3176C63.9009 36.9502 61.7112 37.8673 59.4279 37.8673ZM14.9481 69.4961C15.0084 69.2349 15.0916 68.9157 15.1576 68.6546L22.7679 76.3441C21.7215 78.1129 20.5465 79.8005 19.2526 81.3931C15.677 85.4555 4.90426 87.1966 4.90426 87.1966C5.26585 81.8715 7.27358 76.7962 10.6436 72.688C11.9841 71.4933 13.4297 70.4249 14.9624 69.4961H14.9481Z" fill="#101828"/>
</svg>
