<svg width="89" height="82" viewBox="0 0 89 82" fill="none" xmlns="http://www.w3.org/2000/svg">
<path d="M62.579 0.691406C76.9677 0.691406 88.1172 12.2809 88.1172 27.1212C88.1172 36.7288 83.8337 45.4508 74.7892 55.8663C74.5904 56.0956 74.3572 56.2925 74.0979 56.4499C73.7799 57.809 73.0911 59.099 72.0314 60.1586C70.868 61.3222 69.4266 62.0386 67.9209 62.3079C67.7246 63.9783 66.9854 65.5973 65.7035 66.8792C63.7529 68.8298 61.0216 69.5237 58.5155 68.961C58.1897 70.2901 57.5073 71.5499 56.4688 72.5884C55.1539 73.9034 53.484 74.6473 51.7677 74.8201C51.5958 76.5379 50.8518 78.2092 49.5358 79.5252C46.9276 82.1334 42.3978 81.9291 39.2121 79.9065C37.2007 79.928 35.1823 79.1712 33.6475 77.6362C32.3764 76.3651 31.6389 74.7626 31.435 73.1069C29.7795 72.9029 28.1771 72.1655 26.9062 70.8945C25.6351 69.6234 24.8977 68.0209 24.6938 66.3652C23.0382 66.1612 21.4358 65.4238 20.1648 64.1528C18.8498 62.8377 18.1059 61.1678 17.9332 59.4512C16.2156 59.2793 14.5444 58.5353 13.2285 57.2193C12.0129 56.0037 11.2854 54.485 11.0459 52.9064C10.8011 52.7393 10.5831 52.5359 10.3994 52.3031C3.42803 43.4854 0.03125 35.6211 0.03125 27.1211C0.03125 12.2809 11.1807 0.691406 25.5693 0.691406C32.3737 0.691406 38.9238 3.40654 43.8905 8.10615L44.074 8.28164L44.1079 8.24922C49.0343 3.51748 55.5524 0.756055 62.3394 0.692578L62.579 0.691406ZM49.0063 61.1462C48.7646 61.0573 48.5075 61.0181 48.2503 61.0308C47.9931 61.0436 47.7411 61.1081 47.5094 61.2204C47.3744 61.3789 47.2332 61.5319 47.0859 61.6791L37.8701 70.8949C37.7228 71.0423 37.5697 71.1837 37.4111 71.3188C37.0646 72.0308 37.1872 72.9136 37.7786 73.505C38.5247 74.251 39.734 74.2511 40.4799 73.5051L49.6957 64.2893C50.2397 63.7453 50.387 62.9548 50.1375 62.2773L49.0063 61.1462ZM42.9544 54.8464C42.363 54.2549 41.4803 54.1323 40.7682 54.4786C40.6332 54.6371 40.4919 54.7902 40.3447 54.9374L31.1289 64.1532C30.9816 64.3006 30.8285 64.442 30.6699 64.5771C30.3234 65.2891 30.446 66.1719 31.0374 66.7633C31.6287 67.3547 32.5113 67.4772 33.2233 67.1311C33.3585 66.9725 33.4998 66.8195 33.6472 66.6723L42.863 57.4564C43.0102 57.3091 43.1633 57.1678 43.3218 57.0326C43.6684 56.3206 43.5458 55.4378 42.9544 54.8463V54.8464ZM51.3685 50.306C50.7671 50.1903 50.1209 50.3653 49.6554 50.831C48.9093 51.5769 48.9093 52.7862 49.6553 53.5321L52.5412 56.418C53.0054 56.7176 53.4364 57.0659 53.8269 57.4568C54.2178 57.8473 54.566 58.2782 54.8656 58.7424L58.8711 62.7479C59.617 63.4939 60.8264 63.4938 61.5723 62.7479C62.0408 62.2794 62.2151 61.6281 62.0951 61.0236C61.7633 60.7902 61.4503 60.5311 61.1589 60.2488L61.0675 60.159L51.8517 50.9432C51.6624 50.7541 51.4999 50.54 51.3689 50.3068L51.3685 50.306ZM36.2132 48.1046C35.4671 47.3587 34.2577 47.3586 33.5118 48.1046L24.296 57.3204C23.5501 58.0663 23.5502 59.2757 24.2961 60.0216C24.8875 60.613 25.7701 60.7355 26.4822 60.3894C26.6173 60.2308 26.7586 60.0778 26.9059 59.9306L36.1217 50.7147C36.269 50.5674 36.4221 50.4259 36.5807 50.2907C36.9271 49.5788 36.8045 48.696 36.2131 48.1046H36.2132ZM25.5693 6.53428C14.4589 6.53428 5.87363 15.4583 5.87363 27.1212C5.87363 33.4132 8.19922 39.4397 13.18 46.3039L13.228 46.2554L22.4438 37.0396C25.4714 34.012 30.3802 34.0122 33.4078 37.0399C34.7229 38.355 35.4669 40.025 35.6395 41.7415C37.3571 41.9135 39.0283 42.6575 40.3442 43.9734C41.6153 45.2444 42.3528 46.8471 42.5566 48.5027C43.0518 48.5637 43.54 48.6722 44.0144 48.827C44.3936 48.0376 44.9041 47.3183 45.524 46.6997C48.5518 43.672 53.4605 43.6718 56.4879 46.6993L65.7037 55.9151C65.9107 56.122 66.1059 56.3403 66.2884 56.5689C66.8601 56.6475 67.4606 56.467 67.9002 56.0273C68.6326 55.2949 68.6459 54.1158 67.9402 53.3672L67.9107 53.3369L44.1721 30.1566L40.2893 33.387C36.8102 36.2815 31.6754 35.9513 28.5963 32.6348C28.5195 32.5521 28.4446 32.4678 28.3714 32.3819C25.5321 29.0519 25.8978 24.0672 29.1694 21.1849L29.2694 21.0981L39.7103 12.1961C35.8304 8.5998 30.7773 6.53418 25.5693 6.53418V6.53428ZM29.2767 41.1711C28.5307 40.4252 27.3213 40.4251 26.5754 41.1711L17.3596 50.3869C16.6137 51.1328 16.6137 52.3422 17.3596 53.0881C18.1057 53.8341 19.315 53.8342 20.0609 53.0882L29.2768 43.8724C30.0227 43.1265 30.0226 41.9171 29.2767 41.1712V41.1711ZM62.579 6.53418C58.0205 6.53418 53.5806 8.1168 49.9422 10.9232C49.7864 11.1963 49.5873 11.4422 49.3527 11.6515L49.3 11.6975L47.0062 13.653C46.8205 13.8605 46.6388 14.0715 46.461 14.2858L46.3392 14.4341C45.9736 14.8829 45.5081 15.1914 45.0051 15.3596L33.0601 25.544C32.1517 26.3185 32.0431 27.6827 32.8176 28.5911C32.8373 28.6144 32.8576 28.637 32.8783 28.6595C33.8305 29.685 35.4083 29.8018 36.5001 28.9383L36.5525 28.8958L42.4602 23.9805C43.5928 23.0381 45.2461 23.0884 46.3188 24.0876L46.3695 24.1359L72.0318 49.1945C72.1657 49.3284 72.2947 49.467 72.4185 49.6102C79.1998 41.2727 82.2747 34.3799 82.2747 27.1212C82.2747 15.4583 73.6895 6.53428 62.579 6.53428V6.53418Z" fill="#333333"/>
</svg>
