<svg width="92" height="92" viewBox="0 0 92 92" fill="none" xmlns="http://www.w3.org/2000/svg">
<path d="M44.9582 2.25C48.3603 2.25 51.7123 2.62917 54.9748 3.375C55.375 3.46638 55.7532 3.63567 56.0879 3.87322C56.4226 4.11076 56.7072 4.4119 56.9255 4.75944C57.1438 5.10698 57.2915 5.49412 57.3602 5.89876C57.4289 6.30339 57.4173 6.71759 57.3259 7.11771C57.2345 7.51783 57.0652 7.89604 56.8277 8.23073C56.5901 8.56543 56.289 8.85006 55.9414 9.06837C55.5939 9.28669 55.2068 9.43441 54.8021 9.50311C54.3975 9.57181 53.9833 9.56013 53.5832 9.46875C50.7536 8.82324 47.8604 8.49828 44.9582 8.5C23.6728 8.5 6.4165 25.7563 6.4165 47.0417C6.4165 68.3271 23.6728 85.5833 44.9582 85.5833C66.2436 85.5833 83.4998 68.3271 83.4998 47.0417C83.4998 44.1583 83.1832 41.3167 82.5623 38.5542C82.4723 38.1538 82.4621 37.7396 82.5321 37.3352C82.6022 36.9308 82.7512 36.5442 82.9707 36.1975C83.4139 35.4971 84.1172 35.0016 84.9259 34.8198C85.7345 34.638 86.5822 34.7849 87.2826 35.2281C87.6293 35.4476 87.9295 35.7333 88.1659 36.0687C88.4023 36.4042 88.5702 36.7829 88.6602 37.1833C89.3832 40.3958 89.7498 43.6958 89.7498 47.0417C89.7498 71.7792 69.6957 91.8333 44.9582 91.8333C20.2207 91.8333 0.166504 71.7792 0.166504 47.0417C0.166504 22.3042 20.2207 2.25 44.9582 2.25ZM44.9582 26.2083C45.787 26.2083 46.5818 26.5376 47.1679 27.1236C47.7539 27.7097 48.0832 28.5045 48.0832 29.3333C48.0832 30.1621 47.7539 30.957 47.1679 31.543C46.5818 32.1291 45.787 32.4583 44.9582 32.4583C42.0739 32.4583 39.2543 33.3136 36.8561 34.9161C34.4579 36.5185 32.5887 38.7961 31.4849 41.4609C30.3811 44.1256 30.0924 47.0578 30.6551 49.8867C31.2178 52.7156 32.6067 55.3141 34.6462 57.3536C36.6857 59.3932 39.2842 60.7821 42.1131 61.3448C44.942 61.9075 47.8742 61.6187 50.539 60.5149C53.2037 59.4111 55.4813 57.542 57.0838 55.1437C58.6862 52.7455 59.5415 49.926 59.5415 47.0417C59.5415 46.2129 59.8707 45.418 60.4568 44.832C61.0428 44.2459 61.8377 43.9167 62.6665 43.9167C63.4953 43.9167 64.2902 44.2459 64.8762 44.832C65.4623 45.418 65.7915 46.2129 65.7915 47.0417C65.7915 58.5479 56.4644 67.875 44.9582 67.875C33.4519 67.875 24.1248 58.5479 24.1248 47.0417C24.1248 35.5354 33.4519 26.2083 44.9582 26.2083ZM76.4894 0.777086C76.7182 1.00517 76.8908 1.28333 76.9936 1.58959L80.0269 10.675C80.1289 10.9819 80.301 11.2609 80.5296 11.4898C80.7581 11.7187 81.0368 11.8912 81.3436 11.9938L90.404 15.0083C90.7404 15.121 91.0425 15.3177 91.2817 15.5798C91.5208 15.8419 91.689 16.1607 91.7704 16.506C91.8518 16.8514 91.8436 17.2118 91.7467 17.5531C91.6497 17.8944 91.4672 18.2052 91.2165 18.4563L76.8373 32.8396C76.5635 33.1132 76.2188 33.3051 75.842 33.3938C75.4652 33.4825 75.0711 33.4644 74.704 33.3417L65.9873 30.4292L52.3561 44.0625C52.0658 44.3528 51.7212 44.583 51.3419 44.7401C50.9627 44.8972 50.5562 44.9781 50.1457 44.9781C49.7352 44.9781 49.3287 44.8972 48.9494 44.7401C48.5701 44.583 48.2255 44.3528 47.9353 44.0625C47.645 43.7722 47.4147 43.4276 47.2576 43.0484C47.1005 42.6691 47.0197 42.2626 47.0197 41.8521C47.0197 41.4416 47.1005 41.0351 47.2576 40.6558C47.4147 40.2766 47.645 39.9319 47.9353 39.6417L61.5582 26.0208L58.654 17.2917C58.5323 16.9249 58.515 16.5316 58.6041 16.1556C58.6931 15.7796 58.8849 15.4357 59.1582 15.1625L73.5436 0.777086C73.9343 0.386521 74.4641 0.167114 75.0165 0.167114C75.5689 0.167114 76.0987 0.386521 76.4894 0.777086ZM71.7248 11.4354L65.3957 17.7625L67.5998 24.3813L74.2373 26.6L80.5561 20.2813L77.8978 19.3958C76.7487 19.0134 75.6968 18.3851 74.8153 17.5547C73.9338 16.7243 73.2439 15.7117 72.7936 14.5875L72.6248 14.1292L71.7248 11.4354Z" fill="#101828"/>
</svg>
