<svg width="392" height="296" viewBox="0 0 392 296" fill="none" xmlns="http://www.w3.org/2000/svg">
<path fill-rule="evenodd" clip-rule="evenodd" d="M133.936 0.344899C117.235 2.29128 103.148 14.5714 98.293 31.4187C96.5054 37.6219 96.6568 48.3005 98.6215 54.5375C103.094 68.7382 115.221 80.1244 129.459 83.4917C138.918 85.7287 148.117 84.7386 156.952 80.5325C170.847 73.9176 179.923 60.6959 181.136 45.3024C182.65 26.1043 170.085 7.63795 151.73 2.08431C144.952 0.0337142 140.411 -0.410313 133.936 0.344899ZM135.272 1.25791C135.272 1.42157 133.709 2.47329 131.798 3.59547C129.887 4.71765 126.578 7.29007 124.446 9.31204L120.568 12.9876L117.151 12.0709C115.272 11.5667 113.566 10.9847 113.36 10.7777C112.09 9.5036 123.823 3.49419 130.366 2.06743C132.864 1.52285 134.989 1.05094 135.089 1.01865C135.19 0.987088 135.272 1.09424 135.272 1.25791ZM143.318 1.32763C143.318 1.52946 143.154 1.69459 142.952 1.69459C142.751 1.69459 142.587 1.52946 142.587 1.32763C142.587 1.1258 142.751 0.960666 142.952 0.960666C143.154 0.960666 143.318 1.1258 143.318 1.32763ZM133.913 8.19353L130.598 14.6925L127.266 14.3373C121.733 13.7479 121.591 13.3039 125.738 9.56304C128.492 7.0787 135.805 2.05349 137.165 1.71074C137.2 1.70193 135.737 4.6193 133.913 8.19353ZM153.769 3.90152C158.186 5.55946 164.53 9.39864 164.53 10.4137C164.53 11.1681 160.612 12.7035 158.689 12.7035C158.009 12.7035 156.067 11.3803 154.373 9.76341C152.679 8.14656 149.581 5.63579 147.488 4.18408L143.684 1.54487L146.785 1.99404C148.49 2.24137 151.633 3.09933 153.769 3.90152ZM146.679 5.26809C149.055 6.82916 152.115 9.28855 153.48 10.7322L155.962 13.3567L154.212 13.7156C147.398 15.113 148.08 15.4712 144.547 8.6427C142.778 5.22479 141.563 2.42852 141.846 2.42852C142.129 2.42852 144.303 3.70629 146.679 5.26809ZM138.198 9.03388V14.9053H135.272C133.584 14.9053 132.346 14.5545 132.346 14.076C132.346 13.265 137.568 3.16245 137.986 3.16245C138.103 3.16245 138.198 5.80459 138.198 9.03388ZM142.874 7.74951C146.93 15.0404 146.927 14.9053 143.031 14.9053H139.661V9.03388C139.661 5.80459 139.809 3.16245 139.991 3.16245C140.172 3.16245 141.469 5.22699 142.874 7.74951ZM231.239 11.3825C230.017 12.6081 230.141 14.8671 231.458 15.3736C232.387 15.7317 232.555 18.263 232.555 31.9009C232.555 49.8396 232.919 51.5518 237.031 52.9903C238.607 53.5408 250.529 53.8035 273.991 53.8035C307.651 53.8035 308.667 53.8446 310.089 55.2714C311.482 56.6695 311.552 57.7176 311.552 77.326C311.552 100.145 311.773 101.409 316.028 102.897C317.588 103.443 328.552 103.711 349.356 103.711C375.888 103.711 380.605 103.872 382.059 104.828C384.052 106.138 385.918 105.631 386.559 103.608C387.47 100.725 383.715 98.7912 381.771 101.142C380.987 102.089 376.413 102.243 348.865 102.243C317.772 102.243 316.816 102.2 314.973 100.746L313.077 99.2499L312.863 77.563L312.649 55.8761L310.597 54.1059L308.544 52.3357H272.872H237.199L235.608 50.6374C234.072 48.9963 234.018 48.3732 234.018 32.2891C234.018 22.4802 234.298 15.6392 234.701 15.6392C235.076 15.6392 235.597 14.9626 235.858 14.1362C236.744 11.337 233.319 9.29516 231.239 11.3825ZM116.219 13.1285L119.752 14.2873L117.275 18.0605C115.914 20.1353 114.452 22.8905 114.026 24.1836L113.253 26.5344L108.503 25.2126C105.891 24.486 103.549 23.6853 103.298 23.4336C103.047 23.1826 103.309 22.0971 103.88 21.0226C105.223 18.4935 111.059 11.9696 111.979 11.9696C112.369 11.9696 114.277 12.4914 116.219 13.1285ZM170.164 15.4558C173.332 19.3382 175.746 22.9859 175.378 23.3337C174.886 23.7983 167.147 25.9142 165.94 25.9142C165.185 25.9142 164.236 24.8229 163.548 23.162C162.92 21.6486 161.566 19.0344 160.538 17.353L158.67 14.2969L161.783 13.1909C166.483 11.5219 167.087 11.6848 170.164 15.4558ZM126.646 15.3567L129.928 15.808L128.095 21.7786C127.088 25.0622 126.166 27.8716 126.046 28.0214C125.671 28.4933 116.622 27.33 115.566 26.6746C114.353 25.9223 115.222 23.4321 118.518 18.2175C120.724 14.7262 121.1 14.5941 126.646 15.3567ZM159.949 18.7584C161.22 20.878 162.593 23.507 163.001 24.602C163.708 26.5021 163.619 26.6166 161.027 27.1201C159.535 27.41 156.888 27.6705 155.147 27.6984L151.981 27.7491L150.219 22.2446C149.25 19.2171 148.454 16.5133 148.448 16.2359C148.438 15.7317 151.243 15.2429 155.416 15.0227C157.363 14.92 157.925 15.3824 159.949 18.7584ZM138.198 22.6857V28.85H133.2C130.451 28.85 128.008 28.6562 127.772 28.4191C127.325 27.9707 128.901 22.034 130.485 18.194C131.344 16.1112 131.603 15.9945 134.798 16.2499L138.198 16.5207V22.6857ZM148.744 21.3294C149.783 24.4596 150.633 27.432 150.633 27.9347C150.633 28.5843 149.04 28.85 145.147 28.85H139.661V22.6534V16.4576L142.77 16.1765C144.479 16.0224 146.098 15.8381 146.367 15.7677C146.635 15.6972 147.705 18.1999 148.744 21.3294ZM108.053 26.3583C110.351 27.0203 112.321 27.6382 112.43 27.7322C112.539 27.8254 112.312 29.5186 111.927 31.495C111.54 33.4715 111.02 36.6575 110.769 38.5745L110.313 42.0607H104.04H97.7671L98.2287 38.1151C98.9784 31.7182 101.529 24.2519 102.798 24.7407C103.39 24.9689 105.755 25.697 108.053 26.3583ZM177.856 28.8925C178.608 31.0892 179.42 34.9511 179.663 37.4736L180.102 42.0607H173.779H167.456L167.424 39.3084C167.406 37.7951 166.976 34.5746 166.466 32.1526L165.54 27.7491L170.339 26.1777C172.977 25.3139 175.441 24.6724 175.812 24.7532C176.185 24.8332 177.104 26.6959 177.856 28.8925ZM123.4 29.338L125.791 29.7527L125.375 33.5214C125.146 35.594 124.796 38.3639 124.597 39.6754L124.234 42.0607H118.05H111.866V39.9939C111.866 37.6329 113.278 29.5288 113.852 28.596C114.201 28.0272 117.162 28.2577 123.4 29.338ZM165.201 31.8216C165.637 33.8598 165.993 36.9973 165.993 38.794V42.0607H159.916H153.839L153.15 35.8612L152.461 29.6617L156.85 28.9828C164.618 27.7799 164.315 27.6771 165.201 31.8216ZM136.106 30.3178H138.198V36.1892V42.0607H131.886H125.575L126.086 36.8483C126.819 29.3894 126.855 29.3336 130.731 29.8664C132.536 30.1145 134.955 30.3178 136.106 30.3178ZM151.626 32.3361C151.875 33.8502 152.083 36.5746 152.088 38.391L152.096 41.6937H145.878H139.661V36.0439V30.3949L143.501 30.1248C145.613 29.9765 148.204 29.7945 149.257 29.7197C150.937 29.6008 151.229 29.923 151.626 32.3361ZM110.739 45.5468C110.961 47.0609 111.49 50.233 111.914 52.597C112.339 54.9602 112.584 56.9682 112.459 57.0592C112.334 57.1495 109.975 57.8218 107.217 58.5521C102.982 59.6735 102.102 59.7212 101.546 58.8596C100.449 57.1591 98.8548 51.2649 98.312 46.9083L97.8 42.7946H104.068H110.336L110.739 45.5468ZM124.606 44.4459C124.788 45.3538 125.115 48.1237 125.331 50.6007L125.724 55.1048L120.806 55.7169C118.101 56.0538 115.398 56.3385 114.797 56.3503C113.708 56.3723 111.979 49.4844 111.9 44.8129L111.866 42.7946H118.069C123.916 42.7946 124.292 42.8893 124.606 44.4459ZM138.198 48.608V54.4215L132.718 54.663C129.067 54.8237 127.132 54.6233 126.918 54.0619C126.742 53.5988 126.368 50.8744 126.086 48.007L125.575 42.7946H131.886H138.198V48.608ZM152.088 45.9138C152.083 47.6297 151.875 50.2719 151.626 51.7852L151.173 54.5375H145.417H139.661V48.666V42.7946H145.878H152.096L152.088 45.9138ZM165.993 46.0415C165.993 47.8272 165.603 50.9852 165.126 53.0586C164.377 56.3165 164.053 56.7796 162.748 56.4626C161.918 56.2607 159.164 55.8651 156.627 55.584C153.028 55.1848 152.104 54.8391 152.422 54.0098C152.646 53.4248 153.04 50.6623 153.298 47.8705L153.768 42.7946H159.881H165.993V46.0415ZM179.671 47.4301C179.434 49.9798 178.554 53.9041 177.715 56.1521L176.192 60.2379L170.91 58.533C167.48 57.4247 165.715 56.4904 165.876 55.8659C166.013 55.3367 166.498 52.1793 166.953 48.8495L167.78 42.7946H173.941H180.102L179.671 47.4301ZM127.983 62.687C129.029 65.9178 129.698 68.6744 129.47 68.8131C129.241 68.9518 127.142 69.1815 124.804 69.3239L120.554 69.583L118.074 65.5464C116.71 63.3263 115.387 60.6357 115.133 59.5678C114.675 57.6427 114.718 57.62 120.035 56.9675C122.984 56.6057 125.551 56.4229 125.739 56.5609C125.927 56.6989 126.936 59.4555 127.983 62.687ZM138.198 62.2437V68.4821H134.664C130.748 68.4821 130.941 68.7566 128.338 59.4915L127.359 56.0053H132.779H138.198V62.2437ZM150.236 58.3906C149.954 59.7021 149.081 62.5094 148.297 64.629L146.87 68.4821H143.266H139.661V62.2437V56.0053H145.205H150.749L150.236 58.3906ZM158.85 57.0974C161.157 57.3609 163.195 57.8203 163.379 58.119C163.788 58.7825 159.812 66.8198 158.18 68.6296C157.206 69.71 156.288 69.8568 152.902 69.4751C150.648 69.2204 148.701 68.9269 148.574 68.8226C148.448 68.7177 149.23 65.782 150.312 62.2988C151.859 57.3235 152.535 56.0354 153.468 56.2923C154.121 56.4721 156.543 56.8347 158.85 57.0974ZM114.07 60.4331C114.576 61.6573 116.042 64.4139 117.329 66.5577L119.669 70.4571L115.585 71.7268L111.5 72.9965L108.35 69.5213C104.703 65.4987 102.699 61.9678 103.575 61.1098C104.063 60.6313 110.726 58.5587 112.692 58.2739C112.944 58.2372 113.565 59.2089 114.07 60.4331ZM170.696 59.7124L175.554 61.2177L174.021 63.9325C172.5 66.6267 169.523 70.212 167.352 71.9631C166.443 72.6963 165.52 72.6398 162.633 71.6732C160.659 71.012 158.957 70.4035 158.849 70.3206C158.742 70.2377 159.825 68.2208 161.256 65.84C162.686 63.4584 164.045 60.7663 164.273 59.8584C164.779 57.8489 164.691 57.8512 170.696 59.7124ZM133.444 75.6041C135.053 78.7109 136.487 81.5416 136.632 81.8946C137.107 83.0609 131.326 79.64 127.043 76.2214C121.157 71.5228 121.437 70.6655 129.055 70.0703C130.181 69.9823 131.191 71.2571 133.444 75.6041ZM138.198 75.4544C138.198 78.4819 138.038 80.9589 137.842 80.9589C137.478 80.9589 132.346 71.0376 132.346 70.3353C132.346 70.1232 133.663 69.95 135.272 69.95H138.198V75.4544ZM143.724 74.904C139.701 82.7541 139.684 82.7592 139.672 76.0049L139.661 69.95H142.962H146.262L143.724 74.904ZM155.753 71.2211C156.35 71.7738 148.849 78.3762 145.157 80.5472C143.278 81.6517 141.638 82.4444 141.514 82.3079C141.389 82.1713 142.765 79.3281 144.572 75.9895L147.857 69.9191L151.622 70.4013C153.693 70.6663 155.552 71.0347 155.753 71.2211ZM122.518 73.704C123.699 74.9612 126.94 77.6034 129.718 79.5754C132.497 81.5475 134.294 83.1607 133.712 83.1607C129.294 83.1607 117.103 78.0562 114.422 75.0831C113.31 73.8508 113.43 73.704 116.393 72.653C118.127 72.0373 119.731 71.5074 119.958 71.4758C120.185 71.4442 121.337 72.4468 122.518 73.704ZM163.433 73.2328L165.627 74.1135L161.479 76.788C157.247 79.5167 147.664 83.1607 144.722 83.1607C143.499 83.1607 144.17 82.451 147.411 80.3189C149.786 78.7564 153.023 76.1223 154.603 74.4666C157.656 71.2666 158.306 71.1756 163.433 73.2328ZM221.821 84.3885C220.536 87.4901 219.903 88.1352 217.298 88.9976C215.632 89.5495 214.269 90.2255 214.269 90.5C214.269 90.7745 215.632 91.4504 217.298 92.0023C219.903 92.8647 220.536 93.5098 221.821 96.6114L223.315 100.218L224.903 96.6084C226.274 93.4915 226.905 92.8735 229.523 92.0867C231.19 91.5854 232.555 90.911 232.555 90.588C232.555 90.2651 231.19 89.5488 229.52 88.9961C226.938 88.1411 226.249 87.4534 224.901 84.3863L223.315 80.782L221.821 84.3885ZM53.6767 88.6651C51.6023 94.2716 51.3324 94.618 48.3276 95.5215C46.6643 96.0213 45.3038 96.6789 45.3038 96.9827C45.3038 97.2873 46.7023 98.047 48.4125 98.6715C50.9864 99.6124 51.712 100.324 52.6307 102.812C54.177 106.998 54.5406 107.138 55.5668 103.943C56.7708 100.194 57.2279 99.7108 60.654 98.5769C62.2691 98.0418 63.5901 97.3798 63.5901 97.1053C63.5901 96.8308 62.2244 96.1542 60.5553 95.6015C57.9637 94.7428 57.2798 94.0566 55.8703 90.897C54.4747 87.7683 54.1361 87.4241 53.6767 88.6651ZM80.6329 105.811C59.453 113.154 48.7438 147.917 58.5577 177.471C63.7861 193.215 73.9876 203.445 85.6382 204.624C87.7931 204.842 101.9 203.928 116.986 202.591L144.415 200.162L148.888 202.233C151.348 203.372 154.969 204.465 156.934 204.661C158.9 204.857 192.511 202.273 231.627 198.917L302.747 192.818L304.772 190.877C306.795 188.94 306.83 188.934 338.25 186.295L369.702 183.653L372.05 180.929C373.342 179.43 374.94 177.001 375.602 175.529C376.755 172.963 376.991 172.834 381.418 172.359C385.681 171.901 386.174 171.657 387.891 169.162C390.026 166.059 392.017 159.078 392 154.748C391.982 150.189 390.209 143.642 388.144 140.51C386.267 137.665 384.062 136.772 378.845 136.744C377.38 136.736 376.608 135.949 374.96 132.785C371.105 125.381 373.698 126.065 338.198 123.079L306.798 120.438L304.603 118.421L302.409 116.404L234.75 110.647C197.537 107.481 163.963 104.872 160.142 104.851C153.896 104.815 152.75 105.029 148.819 106.963L144.444 109.115L116.269 106.76C100.773 105.465 87.2708 104.426 86.265 104.45C85.2593 104.473 82.7248 105.086 80.6329 105.811ZM98.0868 107.973C108.38 113.038 116.449 126.082 119.221 142.135C120.543 149.798 119.74 167.284 117.75 174.148C114.194 186.41 106.877 196.723 98.6661 201.045C95.1354 202.903 93.9197 203.145 88.0937 203.145C82.2684 203.145 81.052 202.903 77.5242 201.046C69.2361 196.684 62.6904 187.437 58.7369 174.508C56.879 168.433 56.7217 166.947 56.683 155.086C56.6354 140.469 57.4568 136.067 62.0921 126.095C66.6212 116.352 72.829 109.816 80.2401 106.988C84.4657 105.375 93.8619 105.893 98.0868 107.973ZM169.618 108.079C183.561 115.294 192.852 137.213 191.311 159.257C189.961 178.56 181.313 195.442 169.906 201.042C164.187 203.85 156.904 204.244 151.132 202.059C131.623 194.67 121.597 160.16 130.865 132.298C135.236 119.157 143.323 109.675 152.823 106.555C156.399 105.381 166.105 106.262 169.618 108.079ZM118.634 108.1C127.986 108.899 137.29 109.739 139.31 109.966L142.982 110.38L139.521 114.138C133.768 120.383 129.146 130.774 127.183 141.875C126.022 148.436 126.176 162.39 127.482 169.03C129.669 180.154 134.196 189.671 140.223 195.817L143.345 199.002L138.76 199.441C128.168 200.455 100.979 202.791 99.7647 202.791C98.9513 202.791 99.7567 201.922 101.874 200.514C109.563 195.404 115.969 185.182 119.304 172.7C121.667 163.856 121.67 145.12 119.31 136.37C116.045 124.269 109.172 113.498 101.665 108.718C97.6962 106.189 96.7058 106.226 118.634 108.1ZM198.285 108.83C212.105 110.031 241.186 112.505 262.91 114.328L302.409 117.642L305.232 120.768C317.702 134.578 319.141 167.73 308.015 184.867C303.724 191.475 303.654 191.51 292.9 192.443C259.702 195.321 171.298 202.79 170.421 202.79C169.84 202.791 170.827 201.857 172.616 200.717C180.393 195.757 186.74 186.08 190.271 173.801C191.756 168.639 191.96 166.333 191.96 154.719C191.96 144.417 191.679 140.489 190.685 136.883C186.886 123.097 180.586 113.546 171.372 107.607C170.087 106.779 170.099 106.731 171.587 106.69C172.451 106.665 184.465 107.629 198.285 108.83ZM82.708 114.19C78.8379 115.432 72.881 121.424 69.9464 127.028C65.369 135.768 63.9865 142.13 64.0077 154.352C64.0282 166.541 65.1283 172.22 69.0547 180.411C73.6351 189.966 81.1412 196.195 88.0542 196.178C95.1441 196.161 102.723 189.954 107.147 180.543C110.652 173.085 111.921 167.681 112.391 158.213C113.786 130.132 99.4224 108.83 82.708 114.19ZM152.241 115.151C136.13 123.207 129.601 156.624 139.73 179.181C145.423 191.856 154.821 198.276 163.525 195.435C175.696 191.461 183.733 175.101 183.707 154.352C183.694 144.018 182.228 137.017 178.385 128.939C171.967 115.446 162.08 110.232 152.241 115.151ZM341.777 124.526L369.441 126.937L371.208 129.085C381.436 141.52 381.226 170.383 370.835 180.372L368.634 182.488L340.642 184.902C325.245 186.231 311.575 187.331 310.262 187.348L307.876 187.379L309.6 184.626C319.084 169.48 318.959 137.79 309.361 124.265L307.795 122.059L310.954 122.087C312.691 122.102 326.561 123.199 341.777 124.526ZM386.442 140.442C387.474 141.672 388.82 144.374 389.433 146.447C391.685 154.052 390.315 164.378 386.442 168.996C384.835 170.912 384.068 171.232 381.082 171.232H377.597L378.674 167.379C380.161 162.062 380.145 146.351 378.647 141.691L377.526 138.205H381.046C384.072 138.205 384.83 138.519 386.442 140.442ZM377.787 189.947C377.096 191.764 376.269 193.25 375.948 193.25C375.629 193.25 374.092 193.785 372.534 194.438L369.702 195.626L372.75 196.823C376.516 198.302 376.736 198.523 378.204 202.288L379.39 205.333L381.13 201.742C382.572 198.762 383.429 197.931 386.16 196.87C389.803 195.455 390.005 195.771 383.923 193.392C382.659 192.897 381.732 191.685 381.063 189.652C380.519 187.998 379.842 186.645 379.559 186.645C379.276 186.645 378.478 188.131 377.787 189.947ZM1.10293 189.265C-0.271463 190.645 -0.360702 191.907 0.831563 193.103C2.03407 194.31 3.97754 194.208 5.07398 192.883C5.81933 191.982 8.2931 191.782 18.7287 191.782C36.0407 191.782 35.0635 190.771 35.0635 208.685V221.986L37.2015 224.131L39.3395 226.277H74.1764C110.881 226.277 112.379 226.404 113.606 229.612C113.855 230.266 114.06 240.046 114.06 251.347V271.893L116.198 274.039L118.336 276.184H173.905C222.624 276.184 229.525 276.32 229.894 277.285C230.399 278.606 232.65 278.731 233.872 277.505C236.289 275.08 232.955 271.26 230.425 273.556C229.286 274.592 223.213 274.716 173.799 274.716C119.424 274.716 118.423 274.69 116.986 273.248C115.595 271.852 115.523 270.801 115.522 251.781C115.521 229.027 115.203 227.41 110.403 225.767C108.571 225.141 98.1263 224.88 73.6475 224.85C40.4565 224.81 39.409 224.766 37.9893 223.341C36.6427 221.99 36.5264 220.894 36.5249 209.58C36.5242 199.342 36.3099 196.859 35.2449 194.728C33.2436 190.725 31.7405 190.337 18.1465 190.325C8.23751 190.316 5.81567 190.11 5.07398 189.213C3.90293 187.798 2.54828 187.816 1.10293 189.265ZM185.997 221.593C184.672 224.79 184.101 225.364 181.455 226.159C179.79 226.66 178.428 227.334 178.428 227.658C178.428 227.982 179.773 228.65 181.417 229.145C183.991 229.919 184.627 230.548 186.012 233.697L187.619 237.351L189.11 233.809C190.387 230.777 191.041 230.123 193.657 229.256C195.339 228.699 196.714 227.979 196.714 227.657C196.714 227.334 195.364 226.664 193.714 226.167C191.119 225.388 190.496 224.769 189.112 221.601L187.511 217.936L185.997 221.593ZM308.626 236.159C308.626 250.737 308.58 251.203 307.067 252.016C305.644 252.78 304.559 251.903 294.712 242.041C287.723 235.038 283.604 231.422 283.025 231.781C282.428 232.152 285.694 235.915 292.898 243.156C307.381 257.712 307.623 257.102 287.365 257.102C274.243 257.102 272.054 257.259 272.054 258.203C272.054 259.146 274.243 259.304 287.365 259.304C307.623 259.304 307.381 258.694 292.898 273.25C285.694 280.491 282.428 284.253 283.025 284.624C283.603 284.982 287.699 281.412 294.626 274.509C304.116 265.055 305.522 263.913 306.98 264.484C308.614 265.123 308.626 265.236 308.626 280.564C308.626 290.366 308.893 296 309.358 296C309.822 296 310.089 290.382 310.089 280.613C310.089 265.66 310.133 265.203 311.648 264.389C313.07 263.626 314.149 264.495 323.909 274.271C329.795 280.167 334.853 284.991 335.15 284.991C336.927 284.991 334.555 282.033 325.371 272.801C311.396 258.755 311.153 259.304 331.35 259.304C344.472 259.304 346.662 259.146 346.662 258.203C346.662 257.259 344.472 257.102 331.35 257.102C311.092 257.102 311.334 257.712 325.817 243.156C333.022 235.915 336.287 232.152 335.69 231.781C335.112 231.423 331.021 235.007 324.089 241.946C309.529 256.521 310.089 256.74 310.089 236.466C310.089 226.738 309.822 221.139 309.358 221.139C308.894 221.139 308.626 226.635 308.626 236.159Z" fill="black"/>
</svg>
